<svg id="Laag_1" data-name="Laag 1" xmlns="http://www.w3.org/2000/svg" xmlns:xlink="http://www.w3.org/1999/xlink" viewBox="0 0 239.13 78.84"><defs><style>.cls-1{fill:none;}.cls-2{clip-path:url(#clip-path);}.cls-3{fill:#1d1d1b;}.cls-4{fill:#9c9b9b;}.cls-5{fill:#e53212;}.cls-6{fill:#f4a27e;}</style><clipPath id="clip-path" transform="translate(0.45 0.04)"><rect id="SVGID" class="cls-1" x="-0.45" y="-0.04" width="239.13" height="78.84"/></clipPath></defs><title>logo</title><g class="cls-2"><path class="cls-3" d="M6.3,30.54h4.59c2.12,0,4.55.61,4.55,3s-2.17,3.12-4.24,3.12H6.3ZM-.45,53.91H12.11c5.46,0,11.52-2,11.52-8,0-3.73-2.68-6.53-6.71-7v-.08c3.16-.93,5.28-3.12,5.28-6.33,0-6.25-5.84-7.3-11.21-7.3H-.45ZM6.3,42h5.11c2.21,0,5.45.45,5.45,3.16,0,2.52-2.38,3.37-4.5,3.37H6.3Z" transform="translate(0.45 0.04)"/><path class="cls-3" d="M74.76,39.06H69v6.57c0,2.11.26,3.65,3.08,3.65a4.92,4.92,0,0,0,2.64-.57v5.07a14.28,14.28,0,0,1-4.55.61c-4.33,0-7.66-1.66-7.66-6V39.06H58.39V34.19h4.16V28.35H69v5.84h5.72Z" transform="translate(0.45 0.04)"/><path class="cls-3" d="M87.62,23.24V36.87h.09c.61-1.54,2.73-3.16,5.89-3.16,6.58,0,7.79,4.06,7.79,9.33V53.91h-6.5V44.25c0-2.27,0-5.19-3.38-5.19s-3.9,2.47-3.9,5v9.82h-6.5V23.24Z" transform="translate(0.45 0.04)"/><polygon class="cls-3" points="119.85 25.22 140.68 25.22 140.68 31.06 126.61 31.06 126.61 36.42 139.9 36.42 139.9 42.26 126.61 42.26 126.61 48.1 141.46 48.1 141.46 53.94 119.85 53.94 119.85 25.22"/><polygon class="cls-3" points="148.21 25.22 157.39 25.22 170.42 45.18 170.51 45.18 170.51 25.22 177.26 25.22 177.26 53.94 168.43 53.94 155.05 33.5 154.97 33.5 154.97 53.94 148.21 53.94 148.21 25.22"/><path class="cls-3" d="M191.62,31h4c5.72,0,10.52,2.64,10.52,8.28,0,6.53-4.72,8.76-11,8.76h-3.51Zm-6.75,22.88h11c9.13,0,17.23-5,17.23-14.28,0-10.51-8.27-14.44-18.14-14.44H184.86Z" transform="translate(0.45 0.04)"/><path class="cls-3" d="M234,32.2a6.76,6.76,0,0,0-4.89-1.91c-1.91,0-4.55.81-4.55,3,0,5.23,14.12,1.87,14.12,11.93,0,6.41-5.5,9.45-11.82,9.45A15.14,15.14,0,0,1,216.56,51l4.81-4.95a7.69,7.69,0,0,0,5.89,2.72c2.21,0,4.68-1,4.68-3,0-5.27-14.38-2.43-14.38-12,0-6.13,5.67-9.33,11.69-9.33a14.46,14.46,0,0,1,9.4,3Z" transform="translate(0.45 0.04)"/><path class="cls-3" d="M47.15,40.68h6.38A12.81,12.81,0,0,0,41.79,28.93v6.38a6.47,6.47,0,0,1,5.36,5.37" transform="translate(0.45 0.04)"/><path class="cls-3" d="M34.38,42.72H28A12.81,12.81,0,0,0,39.75,54.47V48.08a6.46,6.46,0,0,1-5.37-5.37" transform="translate(0.45 0.04)"/><path class="cls-3" d="M39.75,35.31V28.93A12.81,12.81,0,0,0,28,40.68h6.39a6.46,6.46,0,0,1,5.38-5.37" transform="translate(0.45 0.04)"/><path class="cls-4" d="M41.79,48.08v6.39A12.81,12.81,0,0,0,53.53,42.72H47.15a6.47,6.47,0,0,1-5.36,5.37" transform="translate(0.45 0.04)"/><path class="cls-5" d="M47.07,11.72h6.38A12.81,12.81,0,0,0,41.71,0V6.35a6.46,6.46,0,0,1,5.36,5.37" transform="translate(0.45 0.04)"/><path class="cls-5" d="M34.3,13.75H27.91A12.82,12.82,0,0,0,39.67,25.5V19.12a6.47,6.47,0,0,1-5.38-5.37" transform="translate(0.45 0.04)"/><path class="cls-6" d="M39.67,6.35V0A12.81,12.81,0,0,0,27.91,11.72H34.3a6.47,6.47,0,0,1,5.38-5.37" transform="translate(0.45 0.04)"/><path class="cls-5" d="M41.71,19.12V25.5A12.81,12.81,0,0,0,53.45,13.75H47.07a6.47,6.47,0,0,1-5.36,5.37" transform="translate(0.45 0.04)"/><path class="cls-5" d="M50.09,66.93a3.09,3.09,0,0,0-2.43-1.15,3.79,3.79,0,0,0-3.74,4.09,3.69,3.69,0,0,0,3.74,3.91,3.09,3.09,0,0,0,2.63-1.35l1.15.86a4.67,4.67,0,0,1-3.8,1.76,5.17,5.17,0,0,1-5.17-5.19,5.09,5.09,0,0,1,5.24-5.36,4.4,4.4,0,0,1,3.52,1.56Z" transform="translate(0.45 0.04)"/><path class="cls-5" d="M55.88,67.91a3.53,3.53,0,1,1-3.58,3.53,3.53,3.53,0,0,1,3.58-3.53m0,5.87a2.34,2.34,0,1,0-2.21-2.34,2.16,2.16,0,0,0,2.21,2.34" transform="translate(0.45 0.04)"/><path class="cls-5" d="M61.06,68.08h1.28v1h0a2.37,2.37,0,0,1,2.21-1.21A2.32,2.32,0,0,1,67,70.48v4.33H65.74v-4c0-1.26-.72-1.73-1.53-1.73-1.06,0-1.87.68-1.87,2.24v3.46H61.06Z" transform="translate(0.45 0.04)"/><path class="cls-5" d="M68.94,68.08h1.28v1h0a2.37,2.37,0,0,1,2.21-1.21,2.32,2.32,0,0,1,2.44,2.57v4.33H73.63v-4c0-1.26-.72-1.73-1.53-1.73-1.06,0-1.87.68-1.87,2.24v3.46H68.94Z" transform="translate(0.45 0.04)"/><path class="cls-5" d="M77.8,71.91a2.11,2.11,0,0,0,2.27,2,2.32,2.32,0,0,0,1.84-1l1,.74a3.52,3.52,0,0,1-3,1.38,3.34,3.34,0,0,1-3.46-3.53,3.41,3.41,0,0,1,3.48-3.53c2.37,0,3.28,1.82,3.28,3.55v.45Zm4-1a1.82,1.82,0,0,0-1.94-2,2.07,2.07,0,0,0-2.09,2Z" transform="translate(0.45 0.04)"/><path class="cls-5" d="M89.53,69.87a2.25,2.25,0,1,0-1.6,3.92A2,2,0,0,0,89.56,73l.91.91a3.31,3.31,0,0,1-2.55,1,3.53,3.53,0,0,1,0-7.05A3.45,3.45,0,0,1,90.49,69Z" transform="translate(0.45 0.04)"/><path class="cls-5" d="M95.85,69.19H94v3.05c0,.75,0,1.55,1,1.55a1.81,1.81,0,0,0,.91-.2v1.16a2.88,2.88,0,0,1-1.15.23c-2,0-2-1.21-2-2.28v-3.5H91.27V68.08h1.47V66.19H94v1.89h1.83Z" transform="translate(0.45 0.04)"/><path class="cls-5" d="M98.45,64.73a.94.94,0,1,1-.94.94.94.94,0,0,1,.94-.94m-.64,3.35h1.28v6.73H97.81Z" transform="translate(0.45 0.04)"/><path class="cls-5" d="M101.47,68.08h1.28v1h0A2.37,2.37,0,0,1,105,67.91a2.32,2.32,0,0,1,2.44,2.57v4.33h-1.28v-4c0-1.26-.72-1.73-1.53-1.73-1.06,0-1.87.68-1.87,2.24v3.46h-1.28Z" transform="translate(0.45 0.04)"/><path class="cls-5" d="M116.1,74.75a3.4,3.4,0,0,1-3.67,3.46A4.54,4.54,0,0,1,109.13,77l.86-1.08a3.13,3.13,0,0,0,2.4,1.09,2.15,2.15,0,0,0,2.43-2.33v-1h0a2.65,2.65,0,0,1-2.33,1.19,3.49,3.49,0,0,1,0-7A2.87,2.87,0,0,1,114.79,69h0v-1h1.28Zm-5.7-3.31a2.21,2.21,0,1,0,4.43,0,2.22,2.22,0,1,0-4.43,0" transform="translate(0.45 0.04)"/><path class="cls-5" d="M122,68.08h1.28v1h0a2.88,2.88,0,0,1,2.34-1.14,3.53,3.53,0,0,1,0,7.07,2.82,2.82,0,0,1-2.34-1.13h0v5H122Zm1.28,3.36a2.22,2.22,0,1,0,2.21-2.34,2.16,2.16,0,0,0-2.21,2.34" transform="translate(0.45 0.04)"/><path class="cls-5" d="M131.6,71.91a2.11,2.11,0,0,0,2.27,2,2.32,2.32,0,0,0,1.84-1l1,.74a3.52,3.52,0,0,1-3,1.38,3.34,3.34,0,0,1-3.46-3.53,3.41,3.41,0,0,1,3.48-3.53c2.37,0,3.28,1.82,3.28,3.55v.45Zm4-1a1.82,1.82,0,0,0-1.94-2,2.07,2.07,0,0,0-2.09,2Z" transform="translate(0.45 0.04)"/><path class="cls-5" d="M141.77,67.91a3.53,3.53,0,1,1-3.58,3.53,3.53,3.53,0,0,1,3.58-3.53m0,5.87a2.34,2.34,0,1,0-2.21-2.34,2.16,2.16,0,0,0,2.21,2.34" transform="translate(0.45 0.04)"/><path class="cls-5" d="M146.95,68.08h1.28v1h0a2.88,2.88,0,0,1,2.34-1.14,3.53,3.53,0,0,1,0,7.07,2.82,2.82,0,0,1-2.34-1.13h0v5h-1.28Zm1.28,3.36a2.22,2.22,0,1,0,2.21-2.34,2.16,2.16,0,0,0-2.21,2.34" transform="translate(0.45 0.04)"/><rect class="cls-5" x="156.16" y="64.12" width="1.28" height="10.73"/><path class="cls-5" d="M160,71.91a2.11,2.11,0,0,0,2.27,2,2.32,2.32,0,0,0,1.84-1l1,.74a3.52,3.52,0,0,1-3,1.38,3.34,3.34,0,0,1-3.46-3.53,3.41,3.41,0,0,1,3.48-3.53c2.37,0,3.28,1.82,3.28,3.55v.45Zm4-1a1.82,1.82,0,0,0-1.94-2,2.07,2.07,0,0,0-2.09,2Z" transform="translate(0.45 0.04)"/><path class="cls-5" d="M171.34,69.19H169.9V68.08h1.45v-1.5c0-1.79.62-2.67,2.3-2.67a3.9,3.9,0,0,1,1,.1l-.14,1.14a1.8,1.8,0,0,0-.72-.13c-.94,0-1.09.58-1.09,1.52v1.55h1.52v1.11h-1.53v5.62h-1.28Z" transform="translate(0.45 0.04)"/><path class="cls-5" d="M178.82,67.91a3.53,3.53,0,1,1-3.58,3.53,3.53,3.53,0,0,1,3.58-3.53m0,5.87a2.34,2.34,0,1,0-2.21-2.34,2.16,2.16,0,0,0,2.21,2.34" transform="translate(0.45 0.04)"/><path class="cls-5" d="M184,68.08h1.28v1h0a2.27,2.27,0,0,1,2-1.21,1.82,1.82,0,0,1,.57.09l-.06,1.38a2.48,2.48,0,0,0-.62-.1c-1.25,0-1.93.68-1.93,2.16v3.38H184Z" transform="translate(0.45 0.04)"/><path class="cls-5" d="M198,69.87a2.25,2.25,0,1,0-1.6,3.92A2,2,0,0,0,198,73l.91.91a3.31,3.31,0,0,1-2.55,1,3.53,3.53,0,0,1,0-7.05A3.45,3.45,0,0,1,199,69Z" transform="translate(0.45 0.04)"/><path class="cls-5" d="M200.15,64.08h1.28v5h0a2.37,2.37,0,0,1,2.21-1.2,2.32,2.32,0,0,1,2.44,2.57v4.33h-1.28v-4c0-1.26-.72-1.73-1.53-1.73-1.06,0-1.87.68-1.87,2.24v3.46h-1.28Z" transform="translate(0.45 0.04)"/><path class="cls-5" d="M207.94,68.9a4,4,0,0,1,2.67-1c2,0,2.81,1.08,2.81,2.24v3.43a10.27,10.27,0,0,0,.06,1.22h-1.13q0-.51,0-1h0A2.56,2.56,0,0,1,209.91,75a2.09,2.09,0,0,1-2.33-2c0-1.73,1.66-2.33,3.7-2.33h.94v-.28a1.45,1.45,0,0,0-1.6-1.42,2.79,2.79,0,0,0-1.91.76Zm3.6,2.67c-1.21,0-2.68.21-2.68,1.29,0,.77.57,1.09,1.45,1.09a1.82,1.82,0,0,0,1.92-2v-.43Z" transform="translate(0.45 0.04)"/><path class="cls-5" d="M215.4,68.08h1.28v1h0a2.37,2.37,0,0,1,2.21-1.21,2.32,2.32,0,0,1,2.44,2.57v4.33h-1.28v-4c0-1.26-.72-1.73-1.53-1.73-1.06,0-1.87.68-1.87,2.24v3.46H215.4Z" transform="translate(0.45 0.04)"/><path class="cls-5" d="M230,74.75a3.4,3.4,0,0,1-3.67,3.46A4.54,4.54,0,0,1,223.06,77l.87-1.08a3.13,3.13,0,0,0,2.4,1.09,2.15,2.15,0,0,0,2.43-2.33v-1h0a2.65,2.65,0,0,1-2.33,1.19,3.49,3.49,0,0,1,0-7A2.87,2.87,0,0,1,228.72,69h0v-1H230Zm-5.7-3.31a2.21,2.21,0,1,0,4.43,0,2.22,2.22,0,1,0-4.43,0" transform="translate(0.45 0.04)"/><path class="cls-5" d="M232.92,71.91a2.11,2.11,0,0,0,2.27,2,2.32,2.32,0,0,0,1.84-1l1,.74A3.52,3.52,0,0,1,235,75a3.34,3.34,0,0,1-3.46-3.53A3.41,3.41,0,0,1,235,67.91c2.37,0,3.28,1.82,3.28,3.55v.45Zm4-1a1.82,1.82,0,0,0-1.94-2,2.07,2.07,0,0,0-2.09,2Z" transform="translate(0.45 0.04)"/></g></svg>