<svg xmlns="http://www.w3.org/2000/svg" xml:space="preserve" width="140" height="" style="enable-background:new 0 0 595.3 303.3" viewBox="0 0 595.3 303.3"><path d="M470.9 121.4c0-57.4-21.5-76.6-79.9-76.6-61.7 0-85.5 17.8-85.5 80.9 0 65.5 39.1 79.9 84.4 79.9 46.7 0 81-13 81-84.2m-81.4-30.5c15.6 0 26.2 8.1 26.2 31 0 13.5-1.6 35.3-25.9 35.3-9.3 0-28.9 0-28.9-33.3-.1-24.4 10.3-33 28.6-33" style="fill:#ec6608"/><path d="M12 299.4h18.5V255h11.1v-12h-12v-2.5c0-5.1 3.6-5.7 7.8-5.7 1.6 0 2.5.2 4.3.4l1.5-12.6c-3-.5-6.7-.9-9.7-.9-15.7 0-21.4 5-21.4 21.2H5.3v12H12v44.5zM104.2 299.4V243H85.8v30.2c0 10-6.1 12.6-10.1 12.6-5.9 0-9.1-2.6-9.1-10.1V243H48.1v33.9c0 14.8 4.7 24.1 20.9 24.1 6.5 0 13.7-3.6 17.2-9.3h.2v7.7h17.8zM79.9 221.9h16.3v13.6H79.9zM55.6 221.9h16.3v13.6H55.6zM115.5 243v56.4H134v-27.9c0-7.1 6.5-12.9 12.6-12.9 2.5 0 4.6.3 5.7.5l2.1-17.8c-1.4-.3-4-.2-5.4-.2-6.6 0-12.6 4.6-15.4 11.7h-.2V243h-17.9zM204.3 301c6.5 0 11.9-2.8 15.5-8.1h.2v6.5h17.6v-77.5h-18.5v27.2h-.1c-3.8-5.1-9.1-7.7-16.1-7.7-16 0-23.8 13.9-23.8 28.6 0 15.8 7.5 31 25.2 31zm4.2-45.5c8 0 11 7.5 11 15.6 0 7.2-2 15.7-11 15.7-8.5 0-12.2-8.6-12.2-16.3-.1-7 3.7-15 12.2-15zM267.3 243h-18.5v56.4h18.5zM267.3 221.9h-18.5V236h18.5zM275.5 271.1c0 18.9 12.5 30 30.8 30 12.6 0 24.6-5.6 28-18.7H317c-1.7 4.1-6.1 6.2-10.5 6.2-7.8 0-12.3-5.1-12.6-12.8h41.4c.9-19.1-9.2-34.3-29.4-34.3-16.6-.1-30.4 12.3-30.4 29.6zm30.4-17.2c6.2 0 10.6 5.2 11 11.5H294c1.1-6.8 5.4-11.5 11.9-11.5zM398.2 299.4l10.7-53.4h.2l10.6 53.4h20.2l21.4-77.5h-20.2l-10.9 56.7h-.3l-11.4-56.7h-19l-11.4 56.7h-.2L377 221.9h-20.2l20.9 77.5zM488.6 301c12.6 0 24.7-5.6 28-18.7h-17.3c-1.7 4.1-6.1 6.2-10.5 6.2-7.8 0-12.3-5.1-12.6-12.8h41.4c.9-19.1-9.2-34.3-29.4-34.3-16.6 0-30.4 12.4-30.4 29.6-.1 18.9 12.4 30 30.8 30zm-.4-47.1c6.2 0 10.6 5.2 11 11.5h-22.9c1-6.8 5.3-11.5 11.9-11.5zM526.3 299.4h18.4v-77.5h-18.4v40zM590 255v-12h-11.4v-17H568s-3.1 13.9-17.2 17v12h9.3v25.1c0 15.3 4 19.9 19.8 19.9 3.4 0 6.7-.4 10.1-.5v-13.6c-1.6 0-3.2.2-4.8.2-4 0-6.6-1-6.6-5.4V255H590zM184.3 140.6c0-29.2-12.6-45.6-32.5-49.5 18-5.1 24.5-18.9 24.5-39 0-27.6-8.8-49.8-56.8-49.8H10.9V201H130c35.1 0 54.3-20.6 54.3-60.4zM72.2 45.8H101c12.5 0 17.4 4.1 17.4 15.4 0 14.4-8.1 18.5-20.9 18.5H72.2V45.8zm32.9 110.8H72.2v-39.9h31.5c14.5 0 21.4 6.9 21.4 19.5 0 16.5-7.2 20.4-20 20.4zM254.8 158c0-40.9 7.2-47.5 37.8-47.5l6.8-57.6c-16.6-2.2-41.2.7-51.2 27.4l-.3-23.1h-48.2v144.4h55.1V158zM500.3 143c0 53.5 28 61.1 51.4 61.1 11.7 0 29.4-.7 38.3-1.4v-42.5l-15.5-.1c-13.9 0-17-6.8-17-28.9v-30.9H590V56.6h-32.5v-44h-39.1c-2.1 20.8-9.5 44-38.7 44v43.7h20.5V143z"/></svg>
