<svg width="279" height="53" xmlns="http://www.w3.org/2000/svg"><g fill="none" fill-rule="evenodd"><path d="M41.2 47.733c6.53-4.58 10.32-11.608 11.033-18.979a63.328 63.328 0 01-9.534 4.637c-6.63 2.549-13.508 3.94-20.4 4.177a79.412 79.412 0 01-17.151 4.276c8.418 11.387 24.396 14.065 36.053 5.89" fill="#B7D165"/><path d="M41.835 5.206A26.22 26.22 0 0026.152 0 26.047 26.047 0 0011.15 4.747c-1.22.856-2.32 1.815-3.347 2.827 8.288 3.381 17.033 4.951 25.762 4.65a74.305 74.305 0 001.754-.676 62.68 62.68 0 006.516-6.342" fill="#E5EECF"/><path d="M46.957 10.285a26.335 26.335 0 00-2.662-2.992 79.536 79.536 0 01-8.975 4.256c-.253.213-.51.424-.766.632a62.42 62.42 0 0012.403-1.896" fill="#1862AC"/><path d="M44.295 7.293a26.188 26.188 0 00-2.46-2.087 62.81 62.81 0 01-6.516 6.343 79.74 79.74 0 008.976-4.256" fill="#5686C3"/><path d="M8.077 24.897a62.45 62.45 0 01-8.076 1.19 26.141 26.141 0 001.392 8.612 62.16 62.16 0 0020.905 2.869 79.258 79.258 0 0017.948-9.409l.326-.23a78.088 78.088 0 01-32.495-3.032" fill="#1862AC"/><path d="M5.147 41.844A79.417 79.417 0 0022.3 37.568 62.16 62.16 0 011.393 34.7a26.22 26.22 0 003.324 6.59c.135.194.29.365.43.554" fill="#5686C3"/><path d="M52.358 25.608a26.147 26.147 0 00-1.082-6.822 79.282 79.282 0 01-10.704 9.144 78.815 78.815 0 0011.786-2.322" fill="#00983F"/><path d="M7.803 7.574a26.082 26.082 0 00-6.141 9.433 78.415 78.415 0 0031.903-4.783c-8.729.301-17.474-1.269-25.762-4.65" fill="#B7D165"/><path d="M51.276 18.786a26.168 26.168 0 00-3.642-7.595c-.218-.312-.449-.608-.677-.906a62.487 62.487 0 01-12.402 1.896 63.103 63.103 0 01-17.16 9.926 63.586 63.586 0 01-9.317 2.79 78.073 78.073 0 0032.494 3.033 79.246 79.246 0 0010.704-9.144" fill="#1D3E91"/><path d="M34.613 12.132l.706-.584a72.788 72.788 0 01-1.752.675h-.002a78.404 78.404 0 01-31.903 4.783 26.383 26.383 0 00-1.325 5 80.252 80.252 0 007.74 2.89 63.672 63.672 0 009.318-2.79A63.076 63.076 0 0030.97 14.89a63.224 63.224 0 003.583-2.707l.001-.001.059-.049m0 0l-.059.049.74-.61c-.225.188-.453.376-.681.561" fill="#51B164"/><path d="M69.368 22.658c1.761 0 3.219-.636 4.17-1.807l-1.5-1.387c-.678.795-1.53 1.2-2.54 1.2-1.89 0-3.232-1.33-3.232-3.238s1.342-3.238 3.232-3.238c1.01 0 1.862.405 2.54 1.185l1.5-1.387c-.951-1.157-2.409-1.793-4.155-1.793-3.146 0-5.484 2.183-5.484 5.233s2.338 5.232 5.47 5.232zm13.147-.173v-1.908H77.45v-8.21h-2.338v10.118h7.403zm3.651 0V12.367h-2.338v10.118h2.338zm4.59 0v-5.941l2.958 4.871h1.053l2.973-5.001.014 6.07h2.194l-.03-10.117H98l-3.724 6.287-3.78-6.287h-1.934v10.118h2.193zm12.655 0l.895-2.168h4.69l.895 2.168h2.453l-4.517-10.118h-2.309l-4.502 10.118h2.395zm4.849-3.946h-3.204l1.602-3.874 1.602 3.874zm9.568 3.946v-8.21h3.232v-1.908h-8.803v1.908h3.233v8.21h2.338zm12.31 0v-1.88h-5.499v-2.34h4.69v-1.822h-4.69v-2.197h5.31v-1.88h-7.633v10.119h7.821zm7.013 0l.895-2.168h4.69l.894 2.168h2.454l-4.517-10.118h-2.31l-4.502 10.118h2.396zM142 18.539h-3.204l1.602-3.874L142 18.539zm9.972 4.12c1.76 0 3.218-.637 4.17-1.808l-1.5-1.387c-.679.795-1.53 1.2-2.54 1.2-1.891 0-3.233-1.33-3.233-3.238s1.342-3.238 3.232-3.238c1.01 0 1.862.405 2.54 1.185l1.501-1.387c-.952-1.157-2.41-1.793-4.156-1.793-3.146 0-5.484 2.183-5.484 5.233s2.338 5.232 5.47 5.232zm10.173-.174v-8.21h3.233v-1.908h-8.803v1.908h3.233v8.21h2.338zm6.826 0V12.367h-2.337v10.118h2.337zm7.288.173c3.175 0 5.527-2.211 5.527-5.232 0-3.021-2.352-5.233-5.527-5.233-3.19 0-5.527 2.226-5.527 5.233 0 3.006 2.338 5.232 5.527 5.232zm0-1.994c-1.804 0-3.16-1.316-3.16-3.238 0-1.923 1.356-3.238 3.16-3.238s3.16 1.315 3.16 3.238c0 1.922-1.356 3.238-3.16 3.238zm9.597 1.82v-6.142l5.036 6.143h1.92V12.367h-2.31v6.143l-5.022-6.143h-1.933v10.118h2.309zm15.744 0v-6.142l5.036 6.143h1.92V12.367h-2.31v6.143l-5.021-6.143h-1.934v10.118h2.309zm17.173 0v-1.878h-5.498v-2.342h4.69v-1.821h-4.69v-2.197h5.31v-1.88h-7.634v10.119h7.822zm6.292 0v-8.21h3.232v-1.907h-8.803v1.908h3.233v8.21h2.338zm9.423 0l2.295-6.85 2.222 6.85h2.511l3.305-10.117h-2.237l-2.352 7.17-2.31-7.17h-2.164l-2.38 7.111-2.281-7.111h-2.424l3.319 10.118h2.496zm16.74.174c3.175 0 5.527-2.211 5.527-5.232 0-3.021-2.352-5.233-5.527-5.233-3.189 0-5.527 2.226-5.527 5.233 0 3.006 2.338 5.232 5.527 5.232zm0-1.994c-1.804 0-3.16-1.316-3.16-3.238 0-1.923 1.356-3.238 3.16-3.238s3.16 1.315 3.16 3.238c0 1.922-1.356 3.238-3.16 3.238zm9.626 1.82v-2.818h2.15l1.948 2.819h2.511l-2.265-3.252c1.313-.564 2.078-1.677 2.078-3.195 0-2.27-1.689-3.671-4.387-3.671h-4.373v10.118h2.338zm1.905-4.682h-1.905v-3.527h1.905c1.428 0 2.15.65 2.15 1.763 0 1.099-.722 1.764-2.15 1.764zm8.687 4.683v-2.559l1.357-1.416 3.232 3.975h2.728l-4.43-5.609 4.184-4.51h-2.597l-4.474 4.727v-4.726h-2.323v10.118h2.323zM66.872 41.758V31.639h-2.338v10.119h2.338zm4.704 0v-6.144l5.037 6.144h1.92V31.639h-2.31v6.144l-5.022-6.144h-1.934v10.119h2.31zm13.782 0v-8.21h3.233v-1.909h-8.803v1.908h3.232v8.21h2.338zm12.31 0v-1.88h-5.499v-2.341h4.69v-1.821h-4.69v-2.198h5.311V31.64h-7.634v10.119h7.822zm4.2 0v-2.82h2.15l1.947 2.82h2.511l-2.265-3.253c1.313-.563 2.078-1.676 2.078-3.194 0-2.27-1.689-3.672-4.387-3.672h-4.373v10.119h2.338zm1.904-4.684h-1.905v-3.527h1.905c1.429 0 2.15.65 2.15 1.764 0 1.098-.721 1.763-2.15 1.763zm8.673 4.684v-6.144l5.036 6.144h1.92V31.639h-2.31v6.144l-5.021-6.144h-1.934v10.119h2.309zm10.42 0l.894-2.169h4.69l.895 2.169h2.453l-4.517-10.119h-2.309l-4.502 10.119h2.395zm4.848-3.947h-3.204l1.602-3.873 1.602 3.873zm9.568 3.947v-8.21h3.232v-1.909h-8.803v1.908h3.233v8.21h2.338zm6.826 0V31.639h-2.338v10.119h2.338zm7.287.173c3.175 0 5.527-2.212 5.527-5.233 0-3.02-2.352-5.232-5.527-5.232-3.189 0-5.527 2.226-5.527 5.232 0 3.007 2.338 5.233 5.527 5.233zm0-1.995c-1.804 0-3.16-1.315-3.16-3.238 0-1.922 1.356-3.237 3.16-3.237s3.16 1.315 3.16 3.237c0 1.923-1.356 3.238-3.16 3.238zm9.597 1.822v-6.144l5.036 6.144h1.92V31.639h-2.31v6.144l-5.021-6.144h-1.934v10.119h2.309zm10.42 0l.894-2.169h4.69l.895 2.169h2.453l-4.517-10.119h-2.309l-4.502 10.119h2.395zm4.848-3.947h-3.204l1.602-3.873 1.602 3.873zm12.54 3.947V39.85h-5.065v-8.21h-2.338v10.118h7.404z" fill="#444" fill-rule="nonzero"/></g></svg>