<?xml version="1.0" encoding="utf-8"?>
<!-- Generator: Adobe Illustrator 26.3.1, SVG Export Plug-In . SVG Version: 6.00 Build 0)  -->
<svg version="1.1" id="Layer_1" xmlns="http://www.w3.org/2000/svg" xmlns:xlink="http://www.w3.org/1999/xlink" x="0px" y="0px"
	 viewBox="0 0 210 130" style="enable-background:new 0 0 210 130;" xml:space="preserve">
<style type="text/css">
	.st0{fill:#009EE2;}
	.st1{fill:#2B2522;}
</style>
<g>
	<g>
		<g>
			<g>
				<path class="st0" d="M131.7,104.6c0,0,2.1,20.2,24.5,20.2c26.4,0,29.6-21.5,25.7-30.1c-5.3-11.5-19-19.7-51.2-23.4
					C130.7,71.3,130.2,90.3,131.7,104.6"/>
				<path class="st1" d="M131.4,66.1c0,0,48,2.8,55.6,27.8c2.9-6.4,2.9-8.6,7.7-21c4.9-12.4,11-24.5,11-24.5s2.4-7.1-7.1-2
					c-7.3,3.9-7.1,9.5-10.8,16.8s-4-2.7-4-2.7c-1.1-23.9-2.4-43.7-2.4-43.7s0.3-7.7-4.4-7.7c-5.1,0-4.2,7.7-4.2,7.7l-0.7,34.5h-2.4
					l-1.3-40.6c0,0,0-6.9-4.6-6.9c-4.6,0-4.9,7.1-4.9,7.1c0,3.5-1.3,40.2-1.3,40.2h-2.9l-0.2-34.9c0,0,0.9-6.9-4.6-6.9
					c-5.5,0-4.6,7.3-4.6,7.3c0,2.4-1.7,34.5-1.7,34.5l-2.6,0.4l-0.6-25.6c0,0,0.9-6.4-4.2-6.4c-3.8,0-4,6-4,6
					c-1.5,10.4-1.4,40.7-1.4,40.7"/>
				<polygon class="st1" points="5.1,19.8 5.1,71.3 36,71.3 36,60.3 18.4,60.3 18.4,49.8 31.2,49.8 31.2,39.3 18.4,39.3 18.4,30.7 
					34.1,30.7 35.1,19.8 				"/>
				<path class="st1" d="M64.1,71.3L55,53.4c-1.3-2.7-2.9-6.4-4-9.7c0.3,2,0.7,6.7,0.7,13.1v14.5H39.2V19.8h12.7l9.4,17.7
					c1.5,2.7,3,6.4,4.3,9.8c-0.4-3-0.4-8.1-0.4-11.5v-16h12.6v51.5H64.1L64.1,71.3z"/>
				<path class="st1" d="M114.7,65.1c-3.3,3.9-7.4,6.2-14.3,6.2H81.7V19.8h18.2c3.6,0,8.1,0.3,12.3,3.2c5.8,4.1,8.4,11.2,8.4,21.7
					C120.5,52.6,119.4,59.6,114.7,65.1 M99,30.7h-4.1v29.6h4.4c3.7,0,6.7-1.8,6.7-16.1C106,32.2,102.9,30.7,99,30.7"/>
				<path class="st0" d="M31.9,102h-7.4l-1.4-7.8c-0.6-3.2-1.2-6.8-1.3-8.5h0c-0.1,1.4-0.7,5-1.3,8.5l-1.4,7.8h-7.5L5,75h7.3
					l1.5,7.3c1.3,6.1,1.5,8.7,1.5,9.7h0c0.2-2.2,0.6-5.5,1.4-9.5l1.4-7.5h7.7l1.7,9c0.4,2.1,0.9,4.6,1.1,7.9h0
					c0.2-2.4,1-7.6,1.5-10.3l1.4-6.7h7.4L31.9,102L31.9,102z"/>
				<path class="st0" d="M52.4,102L51,96.8h-6.4l-1.5,5.2h-7.3l8.7-27h7.2l8.2,27H52.4L52.4,102z M48.5,86.6
					c-0.3-1.2-0.5-2.8-0.5-3.8c-0.1,1-0.3,2.5-0.7,4.3l-1.1,4.4h3.5L48.5,86.6z"/>
				<polygon class="st0" points="76.6,80.8 70.3,80.8 70.3,102 63.3,102 63.3,80.8 57.1,80.8 57.1,75 77.4,75 				"/>
				<polygon class="st0" points="79.5,102 79.5,75 95.2,75 94.7,80.7 86.5,80.7 86.5,85.2 93.2,85.2 93.2,90.7 86.5,90.7 86.5,96.2 
					95.7,96.2 95.7,102 				"/>
				<path class="st0" d="M111.6,102l-2.8-7.5c-1-2.8-1.7-3.1-3.2-3.1V102h-6.9V75h9.3c7.9,0,10.5,3.2,10.5,7.7s-2.4,7-5.6,7.5
					c0.9,0.3,2.1,1.5,2.7,2.9c0.9,1.8,3.2,6.8,4.1,8.8L111.6,102L111.6,102z M105.6,80.7v5.5h2c2.4,0,3.2-1.1,3.2-2.9
					c0-1.9-1-2.6-3.2-2.6H105.6L105.6,80.7z"/>
				<g>
					<path class="st0" d="M15.2,117.8h-1.5v6.7H8.8v-18.9H15c4.8,0,7.6,1.6,7.6,5.9C22.6,114.3,21.4,117.8,15.2,117.8 M13.7,109.7
						v4.3h1.4c1.5,0,2.2-0.4,2.2-2.5c0-1.6-0.8-1.9-2-1.9L13.7,109.7L13.7,109.7z"/>
					<path class="st0" d="M23.8,115.6c0-6.7,3.7-10.3,8.7-10.3c6.4,0,8.3,4.9,8.3,9.1c0,5.4-1.7,10.5-8.5,10.5
						C26.8,124.9,23.8,121.3,23.8,115.6 M35.3,115c0-4.7-0.9-5.9-3-5.9c-2.2,0-3.1,2.3-3.1,5.9c0,4.8,1.2,6,3.2,6
						S35.3,119.9,35.3,115"/>
					<path class="st0" d="M51.2,124.6h-4.4l-6.4-18.9h5.3l2.4,7.5c0.4,1.2,0.6,1.9,0.9,3.6h0c0.3-1.5,0.7-2.7,1-3.7l2.7-7.4h5.1
						L51.2,124.6L51.2,124.6z"/>
					<polygon class="st0" points="59.3,105.7 59.3,124.6 70.6,124.6 70.6,120.5 64.1,120.5 64.1,116.7 68.8,116.7 68.8,112.8 
						64.1,112.8 64.1,109.7 69.9,109.7 70.3,105.7 					"/>
					<path class="st0" d="M81.6,124.6l-2-5.3c-0.7-2-1.2-2.2-2.2-2.2v7.5h-4.9v-18.9H79c5.6,0,7.3,2.2,7.3,5.4s-1.7,4.9-3.9,5.3
						c0.7,0.2,1.4,1.1,1.9,2c0.6,1.3,2.2,4.8,2.8,6.2H81.6z M77.4,109.7v3.9h1.4c1.7,0,2.2-0.8,2.2-2.1c0-1.4-0.7-1.8-2.2-1.8
						L77.4,109.7L77.4,109.7z"/>
					<polygon class="st0" points="87.6,105.7 87.6,109.7 92,109.7 92,124.6 96.9,124.6 96.9,109.7 101.3,109.7 101.9,105.7 					"/>
					<path class="st0" d="M113.5,116.6v8h-5v-7.9l-5.8-11h5.8l1.7,4c0.4,1,0.6,1.5,0.9,2.6c0.4-0.9,0.7-1.8,1-2.5l1.7-4.1h5.8
						L113.5,116.6L113.5,116.6z"/>
				</g>
			</g>
		</g>
	</g>
</g>
</svg>
